<svg xmlns="http://www.w3.org/2000/svg" xml:space="preserve" width="2000" height="340" data-id="lg_hz9siOIuCBWZPdW9oB" data-version="1" viewBox="0 0 2000 340"><g data-padding="20"><g transform="translate(10 6.071)scale(.96429)"><path fill="#2c106a" d="M857.143 233.147a19.482 19.482 0 1 0 0 38.964 19.482 19.482 0 1 0 0-38.964m0-17.588a3.82 3.82 0 1 0 0 7.64 3.82 3.82 0 1 0 0-7.64m33.252-33.252a3.82 3.82 0 1 0 0 7.64 3.82 3.82 0 1 0 0-7.64m0 66.502a3.82 3.82 0 1 0 0 7.64 3.82 3.82 0 1 0 0-7.64m0-48.912a19.482 19.482 0 1 0 0 38.964 19.482 19.482 0 1 0 0-38.964m-33.252-33.252a19.482 19.482 0 1 0 0 38.964 19.482 19.482 0 1 0 0-38.964m0-17.589a3.82 3.82 0 1 0 0 7.64 3.82 3.82 0 1 0 0-7.64m33.252-33.252a3.82 3.82 0 1 0 0 7.64 3.82 3.82 0 1 0 0-7.64m-33.252-15.662a19.482 19.482 0 1 0 0 38.964 19.482 19.482 0 1 0 0-38.964m33.252 33.252a19.482 19.482 0 1 0 0 38.964 19.482 19.482 0 1 0 0-38.964m33.25 99.753a19.482 19.482 0 1 0 0 38.964 19.482 19.482 0 1 0 0-38.964m0-17.588a3.82 3.82 0 1 0 0 7.64 3.82 3.82 0 1 0 0-7.64m33.252-33.252a3.82 3.82 0 1 0 0 7.64 3.82 3.82 0 1 0 0-7.64m0 66.502a3.82 3.82 0 1 0 0 7.64 3.82 3.82 0 1 0 0-7.64m0-48.912a19.482 19.482 0 1 0 0 38.964 19.482 19.482 0 1 0 0-38.964m-33.251-33.252a19.482 19.482 0 1 0 0 38.964 19.482 19.482 0 1 0 0-38.964m0-17.589a3.82 3.82 0 1 0 0 7.64 3.82 3.82 0 1 0 0-7.64m33.25-33.252a3.82 3.82 0 1 0 0 7.64 3.82 3.82 0 1 0 0-7.64m-33.25-15.662a19.482 19.482 0 1 0 0 38.964 19.482 19.482 0 1 0 0-38.964m66.503 133.005a19.482 19.482 0 1 0 0 38.964 19.482 19.482 0 1 0 0-38.964m0-17.588a3.82 3.82 0 1 0 0 7.64 3.82 3.82 0 1 0 0-7.64m0-48.914a19.482 19.482 0 1 0 0 38.964 19.482 19.482 0 1 0 0-38.964m0-17.589a3.82 3.82 0 1 0 0 7.64 3.82 3.82 0 1 0 0-7.64m0-48.914a19.482 19.482 0 1 0 0 38.964 19.482 19.482 0 1 0 0-38.964m-33.252 33.253a19.482 19.482 0 1 0 0 38.963 19.482 19.482 0 1 0 0-38.964"/><path fill="#2c106a" d="M890.27 133.062a19.482 19.482 0 1 0 0 38.964 19.482 19.482 0 1 0 0-38.964m0-17.59a3.82 3.82 0 1 0 0 7.64 3.82 3.82 0 1 0 0-7.64m33.252-33.25a3.82 3.82 0 1 0 0 7.64 3.82 3.82 0 1 0 0-7.64m0 66.502a3.82 3.82 0 1 0 0 7.64 3.82 3.82 0 1 0 0-7.64m0-48.914a19.482 19.482 0 1 0 0 38.964 19.482 19.482 0 1 0 0-38.964M890.27 66.56a19.482 19.482 0 1 0 0 38.963 19.482 19.482 0 1 0 0-38.964m0-17.59a3.82 3.82 0 1 0 0 7.64 3.82 3.82 0 1 0 0-7.64m33.25-33.25a3.82 3.82 0 1 0 0 7.64 3.82 3.82 0 1 0 0-7.64M890.272.057a19.482 19.482 0 1 0 0 38.964 19.482 19.482 0 1 0 0-38.964m33.25 33.25a19.482 19.482 0 1 0 0 38.964 19.482 19.482 0 1 0 0-38.964m33.252 99.755a19.482 19.482 0 1 0 0 38.964 19.482 19.482 0 1 0 0-38.964m0-17.59a3.82 3.82 0 1 0 0 7.64 3.82 3.82 0 1 0 0-7.64m33.252-33.25a3.82 3.82 0 1 0 0 7.64 3.82 3.82 0 1 0 0-7.64m0 66.502a3.82 3.82 0 1 0 0 7.64 3.82 3.82 0 1 0 0-7.64m0-48.914a19.482 19.482 0 1 0 0 38.964 19.482 19.482 0 1 0 0-38.964m-33.252-33.25a19.482 19.482 0 1 0 0 38.963 19.482 19.482 0 1 0 0-38.964m0-17.59a3.82 3.82 0 1 0 0 7.64 3.82 3.82 0 1 0 0-7.64m33.252-33.25a3.82 3.82 0 1 0 0 7.64 3.82 3.82 0 1 0 0-7.64M956.773.057a19.482 19.482 0 1 0 0 38.964 19.482 19.482 0 1 0 0-38.964m66.504 133.005a19.482 19.482 0 1 0 0 38.964 19.482 19.482 0 1 0 0-38.964m0-17.59a3.82 3.82 0 1 0 0 7.64 3.82 3.82 0 1 0 0-7.64m0-48.913a19.482 19.482 0 1 0 0 38.964 19.482 19.482 0 1 0 0-38.964m0-17.59a3.82 3.82 0 1 0 0 7.64 3.82 3.82 0 1 0 0-7.64m0-48.912a19.482 19.482 0 1 0 0 38.964 19.482 19.482 0 1 0 0-38.964m-33.252 33.25a19.482 19.482 0 1 0 0 38.964 19.482 19.482 0 1 0 0-38.964m.258 199.904a19.482 19.482 0 1 0 0 38.964 19.482 19.482 0 1 0 0-38.964m0-17.59a3.82 3.82 0 1 0 0 7.64 3.82 3.82 0 1 0 0-7.64m33.252-33.25a3.82 3.82 0 1 0 0 7.64 3.82 3.82 0 1 0 0-7.64m0 66.502a3.82 3.82 0 1 0 0 7.64 3.82 3.82 0 1 0 0-7.64m0-48.914a19.482 19.482 0 1 0 0 38.964 19.482 19.482 0 1 0 0-38.964m-33.252-33.25a19.482 19.482 0 1 0 0 38.963 19.482 19.482 0 1 0 0-38.964"/><path fill="#2c106a" d="M990.283 149.12a3.82 3.82 0 1 0 0 7.64 3.82 3.82 0 1 0 0-7.64m33.252-33.253a3.82 3.82 0 1 0 0 7.64 3.82 3.82 0 1 0 0-7.64m-33.252-15.662a19.482 19.482 0 1 0 0 38.964 19.482 19.482 0 1 0 0-38.964m33.252 33.252a19.482 19.482 0 1 0 0 38.964 19.482 19.482 0 1 0 0-38.964m33.25 99.755a19.482 19.482 0 1 0 0 38.964 19.482 19.482 0 1 0 0-38.964m0-17.59a3.82 3.82 0 1 0 0 7.64 3.82 3.82 0 1 0 0-7.64m33.252-33.252a3.82 3.82 0 1 0 0 7.64 3.82 3.82 0 1 0 0-7.64m0 66.503a3.82 3.82 0 1 0 0 7.64 3.82 3.82 0 1 0 0-7.64m0-48.913a19.482 19.482 0 1 0 0 38.963 19.482 19.482 0 1 0 0-38.964m-33.251-33.25a19.482 19.482 0 1 0 0 38.963 19.482 19.482 0 1 0 0-38.964m0-17.589a3.82 3.82 0 1 0 0 7.64 3.82 3.82 0 1 0 0-7.64m33.25-33.252a3.82 3.82 0 1 0 0 7.64 3.82 3.82 0 1 0 0-7.64m-33.25-15.662a19.482 19.482 0 1 0 0 38.964 19.482 19.482 0 1 0 0-38.964m66.503 133.006a19.482 19.482 0 1 0 0 38.964 19.482 19.482 0 1 0 0-38.964m0-17.59a3.82 3.82 0 1 0 0 7.64 3.82 3.82 0 1 0 0-7.64m0-48.913a19.482 19.482 0 1 0 0 38.964 19.482 19.482 0 1 0 0-38.964m0-17.589a3.82 3.82 0 1 0 0 7.64 3.82 3.82 0 1 0 0-7.64m0-48.914a19.482 19.482 0 1 0 0 38.964 19.482 19.482 0 1 0 0-38.964m-33.252 33.252a19.482 19.482 0 1 0 0 38.964 19.482 19.482 0 1 0 0-38.964m-32.515 167.318a19.584 19.584 0 1 0 0 39.168 19.584 19.584 0 1 0 0-39.168m0-17.69a3.84 3.84 0 1 0 0 7.68 3.84 3.84 0 1 0 0-7.68"/><path fill="#2c106a" d="M1090.957 249.65a3.84 3.84 0 1 0 0 7.68 3.84 3.84 0 1 0 0-7.68m0 66.869a3.84 3.84 0 1 0 0 7.68 3.84 3.84 0 1 0 0-7.68m0-49.178a19.584 19.584 0 1 0 0 39.168 19.584 19.584 0 1 0 0-39.168m-33.435-33.436a19.584 19.584 0 1 0 0 39.168 19.584 19.584 0 1 0 0-39.167m0-17.69a3.84 3.84 0 1 0 0 7.68 3.84 3.84 0 1 0 0-7.68m33.435-33.434a3.84 3.84 0 1 0 0 7.68 3.84 3.84 0 1 0 0-7.68m-33.435-15.744a19.584 19.584 0 1 0 0 39.168 19.584 19.584 0 1 0 0-39.167m33.435 33.434a19.584 19.584 0 1 0 0 39.167 19.584 19.584 0 1 0 0-39.167m33.433 100.301a19.584 19.584 0 1 0 0 39.168 19.584 19.584 0 1 0 0-39.168m0-17.69a3.84 3.84 0 1 0 0 7.68 3.84 3.84 0 1 0 0-7.68m33.434-33.434a3.84 3.84 0 1 0 0 7.68 3.84 3.84 0 1 0 0-7.68m0 66.869a3.84 3.84 0 1 0 0 7.68 3.84 3.84 0 1 0 0-7.68m0-49.178a19.584 19.584 0 1 0 0 39.168 19.584 19.584 0 1 0 0-39.168m-33.434-33.436a19.584 19.584 0 1 0 0 39.168 19.584 19.584 0 1 0 0-39.167m0-17.69a3.84 3.84 0 1 0 0 7.68 3.84 3.84 0 1 0 0-7.68m33.434-33.434a3.84 3.84 0 1 0 0 7.68 3.84 3.84 0 1 0 0-7.68m-33.434-15.744a19.584 19.584 0 1 0 0 39.168 19.584 19.584 0 1 0 0-39.167m66.868 133.736a19.584 19.584 0 1 0 0 39.168 19.584 19.584 0 1 0 0-39.168m0-17.69a3.84 3.84 0 1 0 0 7.68 3.84 3.84 0 1 0 0-7.68m0-49.18a19.584 19.584 0 1 0 0 39.168 19.584 19.584 0 1 0 0-39.168m0-17.689a3.84 3.84 0 1 0 0 7.68 3.84 3.84 0 1 0 0-7.68m0-49.178a19.584 19.584 0 1 0 0 39.168 19.584 19.584 0 1 0 0-39.168m-33.434 33.434a19.584 19.584 0 1 0 0 39.168 19.584 19.584 0 1 0 0-39.168"/><g transform="translate(279.61 172.11)"><filter id="a" width="140%" height="140%" x="-20%" y="-20%"><feGaussianBlur in="SourceAlpha"/><feOffset result="oBlur"/><feFlood flood-color="#f75cff" flood-opacity="1"/><feComposite in2="oBlur" operator="in"/><feMerge><feMergeNode/><feMergeNode in="SourceGraphic"/></feMerge></filter><g filter="url(#a)"><rect width="587.74" height="143.51" x="491.6" y="-72.398" fill="none" rx="0" ry="0" transform="scale(.95)"/><path fill="#fff" d="M573.417 36.81h-28.22l-3.5-11.7h-29.06l-3.5 11.7h-27.25l30.27-82.97h30.99Zm-46.43-59.82-8.8 29.55h17.96l-8.68-29.55Zm87.67-5.31q15.67 0 25.38 6.69t9.71 20.44h-23.27q0-10.85-11.82-10.85t-11.82 13.62v6.88q0 13.5 12.3 13.5t12.3-11.09h22.31q0 13.87-9.71 20.62t-25.38 6.75q-16.76 0-26.29-8.44t-9.53-24.84 9.53-24.84 26.29-8.44m131.08-19.3q11.94 0 21.46 3.62 9.53 3.62 15.14 10.67 5.61 7.06 5.61 17.19h-25.45q0-5.19-4.58-8.39-4.58-3.19-11.1-3.19-9.4 0-14.22 5-4.83 5.01-4.83 14.17v7.72q0 9.17 4.83 14.17 4.82 5 14.22 5 6.52 0 11.1-3.07 4.58-3.08 4.58-7.9h-18.81V-9.51h44.26V36.8h-13.75l-2.65-8.21q-11.34 9.65-29.67 9.65-20.62 0-30.99-10.79t-10.37-32.14q0-21.1 11.76-32.01 11.75-10.92 33.46-10.92m122.88 84.42h-19.65l-1.57-9.65q-3.74 5.18-9.83 8.14-6.09 2.95-12.84 2.95-11.1 0-16.65-6.15-5.54-6.15-5.54-17.72v-41.25h24v38.35q0 4.1 2.11 6.57 2.11 2.48 5.96 2.48 4.47 0 7.24-2.9 2.77-2.89 2.77-7.11v-37.39h24Zm53.3-65.24q2.78 0 4.95.66t2.17.78v20.14h-7.72q-7.48 0-10.79 3.86-3.32 3.86-3.32 11.46V36.8h-24v-63.68h19.66l1.57 9.65q2.17-5.55 6.87-8.38t10.61-2.83m46.31.12q14.59 0 23.76 4.88 9.16 4.88 9.16 15.86v24.84q0 2.05.97 3.38.96 1.32 2.89 1.32h4.34v13.87q-.36.24-1.87.78-1.51.55-4.28 1.09t-6.39.54q-7 0-11.52-2.11t-6.21-5.85q-4.58 3.62-10.25 5.79t-13.26 2.17q-22.43 0-22.43-17.85 0-9.28 5-14.16 5.01-4.89 14.41-6.7 9.41-1.81 24.6-1.81v-3.13q0-3.74-2.59-5.67t-6.69-1.93q-3.74 0-6.45 1.33-2.72 1.32-2.72 4.22v.48h-23.63q-.12-.6-.12-1.69 0-9.04 8.62-14.35 8.62-5.3 24.66-5.3m8.92 37.38q-10.25 0-15.13 2.23-4.89 2.23-4.89 5.97 0 6.03 8.21 6.03 4.7 0 8.26-2.53 3.55-2.54 3.55-6.27Z"/></g></g><rect width="589.764" height="38.42" x="490.588" y="-19.853" fill="none" rx="0" ry="0" transform="matrix(.95 0 0 .95 280.47 238.3)"/><path fill="#fff" d="M770.467 226.68v20.68h-2.69v-20.68h-7.25v-2.37h17.16v2.37Zm21.95 3.4h2.63v17.28h-2.15l-.37-2.43h-.15q-.53.9-1.38 1.52-.85.61-1.92.92-1.06.31-2.26.31-2.05 0-3.44-.67-1.38-.66-2.09-2.04-.7-1.39-.7-3.57v-11.32h2.65v11.13q0 2.16.98 3.23.98 1.06 2.98 1.06 1.92 0 3.06-.72 1.15-.73 1.65-2.14.51-1.41.51-3.46Zm19.33 12.55q0 1.66-.83 2.78-.83 1.13-2.36 1.7-1.54.57-3.67.57-1.81 0-3.14-.29-1.32-.28-2.31-.8v-2.41q1.05.52 2.52.94 1.46.43 2.99.43 2.24 0 3.25-.73 1.01-.72 1.01-1.97 0-.71-.4-1.25t-1.35-1.06q-.95-.51-2.62-1.12-1.65-.63-2.86-1.26-1.2-.62-1.86-1.52-.65-.9-.65-2.33 0-2.19 1.77-3.37 1.77-1.17 4.66-1.17 1.56 0 2.92.31 1.37.3 2.55.82l-.88 2.1q-1.08-.46-2.29-.77-1.21-.32-2.47-.32-1.82 0-2.79.6t-.97 1.64q0 .81.45 1.33t1.45.97q.99.46 2.61 1.07 1.63.6 2.81 1.24t1.82 1.55q.64.9.64 2.32m31.36-12.87q2.86 0 4.31 1.49t1.45 4.78v11.32h-2.59v-11.19q0-2.1-.91-3.15-.9-1.04-2.68-1.04-2.51 0-3.65 1.45-1.13 1.45-1.13 4.27v9.66h-2.6v-11.19q0-1.4-.4-2.33-.41-.93-1.2-1.4-.8-.46-2.01-.46-1.72 0-2.76.71-1.04.7-1.51 2.1-.46 1.39-.46 3.43v9.14h-2.62v-17.28h2.12l.39 2.45h.14q.52-.9 1.31-1.52.79-.61 1.77-.93.97-.31 2.08-.31 1.97 0 3.3.73t1.93 2.23h.14q.85-1.5 2.33-2.23 1.49-.73 3.25-.73m26.03 8.93q0 2.13-.55 3.8-.56 1.67-1.6 2.82t-2.51 1.76-3.33.61q-1.74 0-3.18-.61t-2.49-1.76-1.63-2.82q-.57-1.67-.57-3.8 0-2.84.96-4.83t2.75-3.04 4.27-1.05q2.36 0 4.13 1.05 1.78 1.06 2.76 3.06.99 1.99.99 4.81m-13.15 0q0 2.08.55 3.61t1.71 2.37q1.15.83 2.96.83 1.8 0 2.95-.83 1.16-.84 1.71-2.37.56-1.53.56-3.61 0-2.06-.56-3.57-.55-1.5-1.7-2.32t-2.98-.82q-2.69 0-3.95 1.78-1.25 1.78-1.25 4.93m36.42-8.93q2.85 0 4.3 1.49t1.45 4.78v11.32h-2.58v-11.19q0-2.1-.91-3.15-.9-1.04-2.68-1.04-2.51 0-3.65 1.45-1.13 1.45-1.13 4.27v9.66h-2.6v-11.19q0-1.4-.4-2.33-.41-.93-1.2-1.4-.8-.46-2.01-.46-1.72 0-2.76.71-1.04.7-1.51 2.1-.46 1.39-.46 3.43v9.14h-2.62v-17.28h2.11l.4 2.45h.14q.52-.9 1.31-1.52.79-.61 1.76-.93.98-.31 2.09-.31 1.97 0 3.3.73t1.93 2.23h.14q.85-1.5 2.33-2.23 1.49-.73 3.25-.73m17.79.01q2.21 0 3.79.98 1.57.97 2.41 2.73.83 1.76.83 4.11v1.62h-11.93q.05 3.04 1.51 4.64 1.47 1.59 4.13 1.59 1.64 0 2.9-.3t2.62-.88v2.3q-1.31.58-2.59.85-1.29.27-3.04.27-2.49 0-4.34-1.02t-2.88-2.99q-1.02-1.97-1.02-4.82 0-2.79.94-4.83.93-2.04 2.64-3.15 1.72-1.1 4.03-1.1m-.03 2.14q-2.1 0-3.34 1.37-1.25 1.38-1.48 3.83h9.14q-.02-1.54-.48-2.71-.47-1.18-1.41-1.83-.95-.66-2.43-.66m19.68-2.15q3.07 0 4.65 1.5 1.58 1.51 1.58 4.84v11.25h-2.59v-11.08q0-2.16-.98-3.23-.99-1.07-3.02-1.07-2.87 0-4.04 1.62-1.16 1.62-1.16 4.71v9.05h-2.62v-17.28h2.11l.39 2.49h.15q.55-.91 1.4-1.53t1.91-.95q1.05-.32 2.22-.32m17.2 15.77q.64 0 1.32-.11t1.11-.27v2.04q-.46.2-1.27.34-.82.15-1.59.15-1.37 0-2.49-.48-1.12-.49-1.79-1.64t-.67-3.18v-10.25h-2.46v-1.27l2.48-1.03 1.04-3.75h1.57v4h5.07v2.05h-5.07v10.17q0 1.62.75 2.43.75.8 2 .8m20.83-6.84q0 2.13-.55 3.8t-1.59 2.82-2.52 1.76q-1.47.61-3.33.61-1.73 0-3.18-.61-1.44-.61-2.49-1.76t-1.62-2.82q-.58-1.67-.58-3.8 0-2.84.97-4.83.96-1.99 2.75-3.04 1.78-1.05 4.26-1.05 2.36 0 4.14 1.05 1.77 1.06 2.76 3.06.98 1.99.98 4.81m-13.15 0q0 2.08.56 3.61.55 1.53 1.7 2.37 1.15.83 2.96.83 1.8 0 2.96-.83 1.16-.84 1.71-2.37t.55-3.61q0-2.06-.55-3.57-.55-1.5-1.7-2.32t-2.98-.82q-2.7 0-3.95 1.78-1.26 1.78-1.26 4.93m28.85 3.94q0 1.66-.83 2.78-.82 1.13-2.36 1.7t-3.66.57q-1.82 0-3.14-.29-1.33-.28-2.32-.8v-2.41q1.06.52 2.52.94 1.47.43 3 .43 2.24 0 3.25-.73 1-.72 1-1.97 0-.71-.4-1.25t-1.35-1.06q-.94-.51-2.61-1.12-1.66-.63-2.86-1.26-1.21-.62-1.86-1.52-.66-.9-.66-2.33 0-2.19 1.78-3.37 1.77-1.17 4.65-1.17 1.56 0 2.93.31 1.36.3 2.54.82l-.88 2.1q-1.07-.46-2.28-.77-1.22-.32-2.48-.32-1.81 0-2.78.6t-.97 1.64q0 .81.45 1.33t1.44.97q.99.46 2.62 1.07 1.62.6 2.8 1.24 1.19.64 1.82 1.55.64.9.64 2.32m4.4.97h2.81l.2.36q-.28 1.15-.72 2.46-.43 1.31-.94 2.63-.51 1.31-1.03 2.46h-1.96q.33-1.26.65-2.65.31-1.4.57-2.76.26-1.37.42-2.5m27.72-.97q0 1.66-.83 2.78-.83 1.13-2.36 1.7-1.54.57-3.67.57-1.81 0-3.14-.29-1.32-.28-2.31-.8v-2.41q1.05.52 2.52.94 1.47.43 2.99.43 2.24 0 3.25-.73 1.01-.72 1.01-1.97 0-.71-.4-1.25t-1.35-1.06q-.94-.51-2.62-1.12-1.65-.63-2.86-1.26-1.2-.62-1.86-1.52-.65-.9-.65-2.33 0-2.19 1.77-3.37 1.78-1.17 4.66-1.17 1.56 0 2.92.31 1.37.3 2.55.82l-.88 2.1q-1.07-.46-2.29-.77-1.21-.32-2.47-.32-1.82 0-2.79.6-.96.6-.96 1.64 0 .81.44 1.33.45.52 1.45.97.99.46 2.61 1.07 1.63.6 2.81 1.24t1.82 1.55q.64.9.64 2.32m4.21-12.55h2.61v17.28h-2.61Zm1.34-6.46q.64 0 1.11.42.46.42.46 1.3 0 .87-.46 1.29-.47.43-1.11.43-.68 0-1.13-.43-.45-.42-.45-1.29 0-.88.45-1.3t1.13-.42m15 6.14q3.07 0 4.65 1.5 1.58 1.51 1.58 4.84v11.25h-2.59v-11.08q0-2.16-.98-3.23-.99-1.07-3.02-1.07-2.87 0-4.04 1.62t-1.17 4.71v9.05h-2.61v-17.28h2.11l.39 2.49h.15q.55-.91 1.4-1.53t1.91-.95q1.05-.32 2.22-.32m28.12.01q3.23 0 5.16 2.22 1.92 2.22 1.92 6.69 0 2.94-.88 4.95-.89 2-2.49 3.02-1.6 1.03-3.77 1.03-1.37 0-2.41-.37-1.04-.36-1.78-.97-.75-.62-1.23-1.34h-.19q.04.61.11 1.48.08.87.08 1.51v7.1h-2.64v-25.01h2.16l.35 2.56h.13q.5-.79 1.23-1.44.72-.66 1.77-1.05 1.05-.38 2.48-.38m-.46 2.21q-1.79 0-2.89.69-1.09.69-1.6 2.07-.5 1.38-.53 3.46v.51q0 2.19.48 3.7t1.59 2.3 2.99.79q1.6 0 2.68-.87 1.07-.86 1.6-2.42.52-1.55.52-3.57 0-3.05-1.19-4.86-1.19-1.8-3.65-1.8m19.95-2.22q.52 0 1.08.05.57.06 1.01.15l-.33 2.43q-.42-.11-.94-.17-.53-.07-.98-.07-1.04 0-1.96.42-.93.42-1.62 1.2t-1.09 1.88q-.39 1.09-.39 2.43v9.27h-2.63v-17.28h2.17l.28 3.19h.11q.54-.96 1.3-1.76.75-.8 1.75-1.27 1.01-.47 2.24-.47m11.99.01q2.21 0 3.78.98 1.58.97 2.42 2.73.83 1.76.83 4.11v1.62h-11.93q.05 3.04 1.51 4.64 1.47 1.59 4.13 1.59 1.64 0 2.9-.3t2.62-.88v2.3q-1.31.58-2.59.85-1.29.27-3.04.27-2.49 0-4.34-1.02t-2.88-2.99q-1.02-1.97-1.02-4.82 0-2.79.94-4.83.93-2.04 2.64-3.15 1.71-1.1 4.03-1.1m-.03 2.14q-2.1 0-3.34 1.37-1.25 1.38-1.48 3.83h9.14q-.02-1.54-.48-2.71-.47-1.18-1.41-1.83-.95-.66-2.43-.66m26.39 6.78q0 2.13-.55 3.8t-1.59 2.82-2.51 1.76q-1.48.61-3.34.61-1.73 0-3.17-.61-1.45-.61-2.49-1.76-1.05-1.15-1.63-2.82-.57-1.67-.57-3.8 0-2.84.96-4.83t2.75-3.04 4.26-1.05q2.37 0 4.14 1.05 1.77 1.06 2.76 3.06.98 1.99.98 4.81m-13.14 0q0 2.08.55 3.61t1.7 2.37q1.15.83 2.97.83 1.79 0 2.95-.83 1.16-.84 1.71-2.37t.55-3.61q0-2.06-.55-3.57-.55-1.5-1.7-2.32t-2.98-.82q-2.7 0-3.95 1.78t-1.25 4.93m24.6 8.99q-2.33 0-4.12-.97-1.78-.96-2.77-2.93t-.99-4.96q0-3.14 1.05-5.13 1.04-2 2.89-2.96 1.84-.96 4.19-.96 1.29 0 2.5.26t1.98.65l-.79 2.19q-.79-.31-1.82-.56-1.03-.26-1.93-.26-1.8 0-2.99.78-1.19.77-1.78 2.27-.59 1.49-.59 3.69 0 2.09.57 3.57.58 1.49 1.72 2.27t2.86.78q1.37 0 2.48-.3 1.1-.29 2-.68v2.33q-.87.44-1.93.68-1.07.24-2.53.24m20.18-17.6h2.63v17.28h-2.14l-.38-2.43h-.15q-.53.9-1.38 1.52-.85.61-1.92.92-1.06.31-2.26.31-2.05 0-3.44-.67-1.38-.66-2.08-2.04-.71-1.39-.71-3.57v-11.32h2.65v11.13q0 2.16.98 3.23.98 1.06 2.98 1.06 1.92 0 3.06-.72 1.15-.73 1.65-2.14.51-1.41.51-3.46Zm16.28-.31q3.23 0 5.16 2.22 1.92 2.22 1.92 6.69 0 2.94-.88 4.95-.89 2-2.49 3.02-1.6 1.03-3.77 1.03-1.37 0-2.41-.37-1.05-.36-1.79-.97-.74-.62-1.23-1.34h-.18q.04.61.11 1.48t.07 1.51v7.1h-2.63v-25.01h2.16l.35 2.56h.12q.51-.79 1.23-1.44.73-.66 1.78-1.05 1.05-.38 2.48-.38m-.46 2.21q-1.79 0-2.89.69t-1.6 2.07-.54 3.46v.51q0 2.19.49 3.7.48 1.51 1.59 2.3t2.98.79q1.61 0 2.68-.87 1.08-.86 1.6-2.42.53-1.55.53-3.57 0-3.05-1.19-4.86-1.19-1.8-3.65-1.8m18.56-2.18q3.09 0 4.58 1.39 1.5 1.38 1.5 4.43v11.74h-1.91l-.5-2.55h-.13q-.72.94-1.51 1.58t-1.82.96q-1.03.33-2.53.33-1.58 0-2.8-.56-1.22-.55-1.92-1.67t-.7-2.83q0-2.59 2.05-3.98 2.05-1.38 6.24-1.51l2.98-.13v-1.05q0-2.24-.96-3.14-.97-.9-2.71-.9-1.36 0-2.59.4-1.23.39-2.33.93l-.81-1.99q1.17-.6 2.68-1.02 1.52-.43 3.19-.43m3.5 10.64v-1.59l-2.64.11q-3.23.13-4.55 1.06-1.33.93-1.33 2.63 0 1.48.9 2.19t2.38.71q2.3 0 3.77-1.28t1.47-3.83m14.88 7.24q-2.33 0-4.11-.97-1.78-.96-2.78-2.93-.99-1.97-.99-4.96 0-3.14 1.05-5.13 1.05-2 2.89-2.96 1.85-.96 4.2-.96 1.29 0 2.49.26 1.21.26 1.98.65l-.79 2.19q-.78-.31-1.82-.56-1.03-.26-1.93-.26-1.79 0-2.98.78-1.19.77-1.79 2.27-.59 1.49-.59 3.69 0 2.09.58 3.57.57 1.49 1.72 2.27 1.14.78 2.86.78 1.37 0 2.47-.3 1.11-.29 2-.68v2.33q-.86.44-1.93.68-1.06.24-2.53.24m8.55-17.6h2.61v17.28h-2.61Zm1.34-6.46q.64 0 1.11.42.46.42.46 1.3 0 .87-.46 1.29-.47.43-1.11.43-.68 0-1.13-.43-.45-.42-.45-1.29 0-.88.45-1.3t1.13-.42m21.7 15.07q0 2.13-.55 3.8t-1.59 2.82-2.51 1.76q-1.48.61-3.34.61-1.73 0-3.17-.61-1.45-.61-2.5-1.76-1.04-1.15-1.62-2.82-.57-1.67-.57-3.8 0-2.84.96-4.83t2.75-3.04 4.26-1.05q2.37 0 4.14 1.05 1.77 1.06 2.76 3.06.98 1.99.98 4.81m-13.14 0q0 2.08.55 3.61t1.7 2.37q1.15.83 2.96.83 1.8 0 2.96-.83 1.16-.84 1.71-2.37t.55-3.61q0-2.06-.55-3.57-.55-1.5-1.7-2.32t-2.98-.82q-2.7 0-3.95 1.78t-1.25 4.93m25.85-8.93q3.07 0 4.65 1.5 1.58 1.51 1.58 4.84v11.25h-2.59v-11.08q0-2.16-.98-3.23-.99-1.07-3.02-1.07-2.87 0-4.04 1.62t-1.17 4.71v9.05h-2.61v-17.28h2.11l.39 2.49h.15q.55-.91 1.4-1.53t1.91-.95q1.05-.32 2.22-.32m18.28.01q2.21 0 3.78.98 1.58.97 2.41 2.73.84 1.76.84 4.11v1.62h-11.93q.04 3.04 1.51 4.64 1.47 1.59 4.13 1.59 1.64 0 2.9-.3t2.62-.88v2.3q-1.31.58-2.6.85-1.28.27-3.03.27-2.49 0-4.34-1.02-1.86-1.02-2.88-2.99t-1.02-4.82q0-2.79.93-4.83.94-2.04 2.65-3.15 1.71-1.1 4.03-1.1m-.03 2.14q-2.1 0-3.34 1.37-1.25 1.38-1.49 3.83h9.15q-.02-1.54-.48-2.71-.47-1.18-1.41-1.83-.95-.66-2.43-.66m22.67 10.72q0 1.66-.83 2.78-.82 1.13-2.36 1.7t-3.67.57q-1.81 0-3.13-.29-1.33-.28-2.32-.8v-2.41q1.06.52 2.52.94 1.47.43 3 .43 2.24 0 3.25-.73 1-.72 1-1.97 0-.71-.4-1.25t-1.35-1.06q-.94-.51-2.61-1.12-1.66-.63-2.86-1.26-1.21-.62-1.86-1.52-.66-.9-.66-2.33 0-2.19 1.78-3.37 1.77-1.17 4.65-1.17 1.56 0 2.93.31 1.36.3 2.54.82l-.88 2.1q-1.07-.46-2.28-.77-1.22-.32-2.48-.32-1.81 0-2.78.6t-.97 1.64q0 .81.45 1.33t1.44.97q.99.46 2.62 1.07 1.62.6 2.8 1.24 1.19.64 1.82 1.55.64.9.64 2.32"/></g><path fill="transparent" stroke="transparent" d="M720 0h560v340H720z"/></g></svg>